<svg id="Layer_1" data-name="Layer 1" xmlns="http://www.w3.org/2000/svg" viewBox="0 0 511 522"><defs><style>.cls-1{fill:#ffbf69;stroke:#ffbf69;stroke-miterlimit:10;stroke-width:7px}</style></defs><path class="cls-1" d="M442.22 458a7.48 7.48 0 0 0 7.48-7.49V151a22.67 22.67 0 0 0-22.65-22.65h-68.73V46.53a7.48 7.48 0 0 0-2.19-5.29L322.08 7.19A7.5 7.5 0 0 0 316.79 5H184.67a7.49 7.49 0 0 0-5.24 2.18l-34 34a7.48 7.48 0 0 0-2.19 5.3v81.81h-57.7A22.68 22.68 0 0 0 62.88 151v332.66A32.38 32.38 0 0 0 95.23 516h322.12a32.38 32.38 0 0 0 32.35-32.34v-36.89a7.49 7.49 0 1 0-15 0v36.89A17.4 17.4 0 0 1 417.35 501H332.1l-5.52-132.65a6.87 6.87 0 0 1 1.93-5.07 6.8 6.8 0 0 1 5-2.13 21.92 21.92 0 0 0 21.89-21.89v-92.04a7.49 7.49 0 0 0-15 0v92.07a6.95 6.95 0 0 1-6.92 6.91 21.91 21.91 0 0 0-21.86 22.8l5.49 132h-21.9l6.2-131.91a21.88 21.88 0 0 0-21.86-22.92h-1.06a6.93 6.93 0 0 1-6.92-6.91v-92.04a7.49 7.49 0 0 0-15 0v92.07a21.92 21.92 0 0 0 21.89 21.89h1.06a6.91 6.91 0 0 1 6.91 7.23L280.22 501h-53.51l-4.65-112.09a23.63 23.63 0 0 1 8.74-19.19c11-9 18.22-22.53 19.18-36.17 2.25-32.1-6.72-63.09-23.4-80.89-7.94-8.47-16.91-12.95-26-12.95h-.14c-9.93 0-19.41 4.67-27.44 13.35-15.66 16.92-23.53 47.19-21.05 81 1 13.6 8.31 27.07 19.59 36a23.82 23.82 0 0 1 9.14 19.63L175.5 501H95.23a17.39 17.39 0 0 1-17.38-17.37V151a7.7 7.7 0 0 1 7.69-7.68h341.51a7.69 7.69 0 0 1 7.68 7.68v299.51a7.49 7.49 0 0 0 7.49 7.49zM180.9 358.37c-7.93-6.3-13.29-16-14-25.41-3.21-44 12.29-64.48 17.12-69.71 5.14-5.55 10.85-8.51 16.52-8.54h.06c4.73 0 10.07 2.92 15 8.22 10.41 11.11 21.73 36 19.38 69.61-.66 9.44-5.91 19.25-13.7 25.61a38.68 38.68 0 0 0-14.24 31.42L211.72 501h-21.23l5.19-110.6a38.83 38.83 0 0 0-14.78-32.03zM343.35 49.63v78.7h-19.07V30.56zM177.24 30.56v97.77h-19.07v-78.7zm15-10.58H309.3V39H192.21a7.49 7.49 0 1 0 0 15H309.3v74.33H192.21z"/><path class="cls-1" d="M284.55 248.64v63.59a7.49 7.49 0 0 0 15 0v-63.59a7.49 7.49 0 1 0-15 0z"/><path class="cls-1" d="M312.84 248.64v63.59a7.49 7.49 0 0 0 15 0v-63.59a7.49 7.49 0 1 0-15 0z"/></svg>