<?xml version="1.0" encoding="utf-8"?>
<!-- Generator: Adobe Illustrator 22.0.1, SVG Export Plug-In . SVG Version: 6.00 Build 0)  -->
<svg version="1.1" id="Camada_1" xmlns="http://www.w3.org/2000/svg" xmlns:xlink="http://www.w3.org/1999/xlink" x="0px" y="0px"
	 viewBox="0 0 40 40" style="enable-background:new 0 0 40 40;" xml:space="preserve">
<style type="text/css">
	.st0{fill:#FFFFFF;}
</style>
<g>
	<g>
		<path class="st0" d="M35.3,26.1l-16-16l-9,9c1.7,2.9,5.2,7.4,8.5,10.7c2.2,2.2,4.6,4.1,7,5.8l-1.1,1.1c-2.4-1.7-4.8-3.6-7-5.8
			c-2.8-2.8-6.5-7.1-8.6-10.6l-1.6,1.6c1.9,3.2,5.5,7.5,8.5,10.6c3.1,3.1,6.4,5.6,9.6,7.5l9.6-9.6C36.5,29.2,36.5,27.3,35.3,26.1z
			 M32.1,29.3c-0.6,0.6-1.5,0.6-2.1,0c-0.6-0.6-0.6-1.5,0-2.1c0.6-0.6,1.5-0.6,2.1,0C32.7,27.8,32.7,28.7,32.1,29.3z"/>
	</g>
</g>
<g>
	<g>
		<path class="st0" d="M10.3,1.1c-1.5-1.5-3.9-1.5-5.3,0C3.5,2.6,3.5,5,4.9,6.4C5.8,7.3,7,7.6,8.1,7.5l5.9,5.9l4.3-4.3L10.3,1.1z
			 M8.4,4.6C8,5,7.2,5,6.8,4.6C6.4,4.1,6.4,3.4,6.8,3C7.2,2.5,8,2.5,8.4,3C8.8,3.4,8.8,4.1,8.4,4.6z"/>
	</g>
</g>
</svg>
