<?xml version="1.0" encoding="utf-8"?>
<!-- Generator: Adobe Illustrator 22.0.1, SVG Export Plug-In . SVG Version: 6.00 Build 0)  -->
<svg version="1.1" id="Camada_1" xmlns="http://www.w3.org/2000/svg" xmlns:xlink="http://www.w3.org/1999/xlink" x="0px" y="0px"
	 viewBox="0 0 40 40" style="enable-background:new 0 0 40 40;" xml:space="preserve">
<style type="text/css">
	.st0{fill:#FFFFFF;}
</style>
<g>
	<g>
		<path class="st0" d="M38,28.1l-26-26C9.2-0.7,4.8-0.7,2,2s-2.7,7.1,0,9.9l26,26c2.7,2.7,7.1,2.7,9.9,0
			C40.7,35.2,40.7,30.8,38,28.1z M5.3,7.7h7.3v2.3H5.3C5.3,10.1,5.3,7.7,5.3,7.7z M10.8,13.3h7.3v2.3h-7.3V13.3z M16.4,18.8h7.3v2.3
			h-7.3V18.8z M21.9,24.4h7.3v2.3h-7.3V24.4z M34.7,32.3h-7.3v-2.3h7.3V32.3z"/>
	</g>
</g>
<g>
	<g>
		<path class="st0" d="M39,1c-1.3-1.3-3.3-1.3-4.6,0l-2.8,2.8l4.6,4.6L39,5.6C40.3,4.3,40.3,2.2,39,1z"/>
	</g>
</g>
<g>
	<g>
		<path class="st0" d="M3.8,31.6L1,34.4c-1.3,1.3-1.3,3.3,0,4.6s3.3,1.3,4.6,0l2.8-2.8L3.8,31.6z"/>
	</g>
</g>
<g>
	<g>
		<rect x="6.6" y="22.8" transform="matrix(0.7071 -0.7071 0.7071 0.7071 -17.7155 16.0902)" class="st0" width="8" height="13.2"/>
	</g>
</g>
<g>
	<g>
		<rect x="25.4" y="4" transform="matrix(0.7071 -0.7071 0.7071 0.7071 1.1476 23.9029)" class="st0" width="8" height="13.2"/>
	</g>
</g>
</svg>
